<?xml version="1.0" standalone="no"?><!DOCTYPE svg PUBLIC "-//W3C//DTD SVG 1.1//EN" "http://www.w3.org/Graphics/SVG/1.1/DTD/svg11.dtd"><svg t="1775541946182" class="icon" viewBox="0 0 1024 1024" version="1.1" xmlns="http://www.w3.org/2000/svg" p-id="2143" xmlns:xlink="http://www.w3.org/1999/xlink" width="64" height="64"><path d="M960 512C960 264.6 759.4 64 512 64s-448 200.6-448 448 200.6 448 448 448S960 759.4 960 512z m-820 0c0-205.4 166.6-372 372-372 89.00000001 0 170.8 31.3 234.79999999 83.5l-523.29999999 523.29999999C171.3 682.8 140.00000001 601 140 512z m137.20000001 288.5L800.5 277.20000001C852.7 341.2 883.99999999 423 884 512c0 205.4-166.6 372-372 372-89.00000001 0-170.8-31.3-234.79999999-83.5z" fill="#2c2c2c" p-id="2144"></path></svg>