<?xml version="1.0" standalone="no"?><!DOCTYPE svg PUBLIC "-//W3C//DTD SVG 1.1//EN" "http://www.w3.org/Graphics/SVG/1.1/DTD/svg11.dtd"><svg t="1775603709484" class="icon" viewBox="0 0 1024 1024" version="1.1" xmlns="http://www.w3.org/2000/svg" p-id="2386" xmlns:xlink="http://www.w3.org/1999/xlink" width="64" height="64"><path d="M886.09066667 89.64586667a34.13333333 34.13333333 0 1 1 48.26346666 48.26453333L451.67466667 620.60053333a34.13333333 34.13333333 0 1 1-48.2752-48.2752l482.69013333-482.6688zM876.08746667 443.73333333a34.13333333 34.13333333 0 0 1 68.26666666 0v375.46666667c0 69.12-56.0352 125.1552-125.1552 125.1552H204.8c-69.12 0-125.1552-56.0352-125.1552-125.1552V204.8c0-69.12 56.0352-125.1552 125.1552-125.1552h364.08853333a34.13333333 34.13333333 0 0 1 0 68.26666667H204.8A56.88853333 56.88853333 0 0 0 147.91146667 204.8v614.4A56.88853333 56.88853333 0 0 0 204.8 876.08853333h614.4A56.88853333 56.88853333 0 0 0 876.08853333 819.2V443.73333333z" fill="#2c2c2c" p-id="2387"></path></svg>